<svg id="Capa_2" data-name="Capa 2" xmlns="http://www.w3.org/2000/svg" xmlns:xlink="http://www.w3.org/1999/xlink" viewBox="0 0 426.26 718.14"><defs><style>.cls-1,.cls-10,.cls-12,.cls-14,.cls-16,.cls-8{fill:#fff;}.cls-1,.cls-2,.cls-3,.cls-4{stroke:#1d1d1b;}.cls-1,.cls-10,.cls-11,.cls-12,.cls-13,.cls-14,.cls-15,.cls-2,.cls-3,.cls-4,.cls-5,.cls-6,.cls-7,.cls-8,.cls-9{stroke-miterlimit:10;}.cls-2,.cls-3,.cls-7{fill:#e52829;}.cls-10,.cls-13,.cls-15,.cls-2,.cls-5,.cls-7,.cls-8,.cls-9{fill-rule:evenodd;}.cls-11,.cls-4,.cls-6{fill:none;}.cls-10,.cls-11,.cls-12,.cls-13,.cls-14,.cls-15,.cls-5,.cls-6,.cls-7,.cls-8,.cls-9{stroke:#000;}.cls-5{fill:url(#Degradado_sin_nombre_8);}.cls-9{fill:url(#Degradado_sin_nombre_8-2);}.cls-10,.cls-11,.cls-12{stroke-width:0.8px;}.cls-13{fill:url(#Degradado_sin_nombre_8-3);}.cls-15{fill:url(#Degradado_sin_nombre_8-4);}</style><linearGradient id="Degradado_sin_nombre_8" x1="183.13" y1="576.56" x2="239.68" y2="576.56" gradientUnits="userSpaceOnUse"><stop offset="0" stop-color="#d7d7d7"/><stop offset="1" stop-color="#f6e820"/></linearGradient><linearGradient id="Degradado_sin_nombre_8-2" x1="-169.54" y1="576.56" x2="-114.53" y2="576.56" gradientTransform="matrix(-1, 0, 0, 1, 408.57, 0)" xlink:href="#Degradado_sin_nombre_8"/><linearGradient id="Degradado_sin_nombre_8-3" x1="183.24" y1="565.17" x2="240.61" y2="565.17" xlink:href="#Degradado_sin_nombre_8"/><linearGradient id="Degradado_sin_nombre_8-4" x1="-174.8" y1="565.17" x2="-117.43" y2="565.17" gradientTransform="matrix(-1, 0, 0, 1, 408.57, 0)" xlink:href="#Degradado_sin_nombre_8"/></defs><title>logojilo</title><polygon class="cls-1" points="15.27 487.52 216.82 15.28 399.84 480.71 210.21 681.38 15.27 487.52"/><path class="cls-2" d="M239.44,656.13" transform="translate(-167.3 -215.76)"/><path class="cls-3" d="M333.21,423.21Q333.12,434,333,444.8l-27.26,66q-.21,141-.4,282l-54.94-54.94-2.05-2.44,5.25-5.38,5.23-5.35,31.67,30.92V547.68L245.71,656.25l-15.37,8.26Z" transform="translate(-167.3 -215.76)"/><line class="cls-4" x1="86.35" y1="514.29" x2="86.33" y2="514.29"/><path class="cls-3" d="M376.62,321.39V864.05l-29.11-29.11q0-222.68,0-445.36Z" transform="translate(-167.3 -215.76)"/><path class="cls-3" d="M431.94,446.47v328h1l96.65-95.73Zm31.91,255V602.24l29.55,70.27-29.23,29Z" transform="translate(-167.3 -215.76)"/><path class="cls-5" d="M210,704.07l-1.72.14,1.72-.15,6.16-.51-1.7-1.7.15-.36,1-2.21-5.83.49h0a.17.17,0,0,0,.11-.18l-.19-2.34a.21.21,0,0,0-.21-.17l-1.71.14-2.14.18-1.71.14a.2.2,0,0,0-.17.2l.19,2.34a.22.22,0,0,0,.12.16l-16.79,1.38a.19.19,0,0,0,.09-.17l-.19-2.35a.21.21,0,0,0-.2-.17l-1.69.14-2.14.18-1.74.14a.2.2,0,0,0-.17.2l.19,2.35a.21.21,0,0,0,.13.15l-4.94.4-.94,2.23,0,0,2,2,4.35-.36.73,0-.73.06a.19.19,0,0,0-.17.2l.19,2.34a.19.19,0,0,0,.2.17l1.74-.14h0a.07.07,0,0,0-.06.07l.07.79s0,.06.07.06l2.06-.17s.06,0,.06-.07l-.06-.79a.1.1,0,0,0-.05-.06l1.7-.14a.2.2,0,0,0,.17-.2l-.2-2.35a.2.2,0,0,0-.2-.17l16.95-1.39a.21.21,0,0,0-.17.2l.2,2.34a.19.19,0,0,0,.2.17l1.71-.14h.06a.08.08,0,0,0,0,.07l.07.79a.06.06,0,0,0,.06.06l2.07-.17a.05.05,0,0,0,.05-.07l-.06-.79a.06.06,0,0,0-.06-.06l1.71-.14a.19.19,0,0,0,.17-.2l-.19-2.34A.2.2,0,0,0,210,704.07ZM380,895.16V895a1.66,1.66,0,0,0-1.66-1.67H378a1.67,1.67,0,0,0-1.67,1.67v3.51a1.67,1.67,0,0,0,1.67,1.67h.33a1.66,1.66,0,0,0,1.66-1.67v-.09h0v-3.26Zm-.14-621.46v-.16a1.66,1.66,0,0,0-1.66-1.66h-.33a1.66,1.66,0,0,0-1.67,1.66v3.52a1.66,1.66,0,0,0,1.67,1.66h.33a1.66,1.66,0,0,0,1.66-1.66V277h.05V273.7Zm0-18.94v-.16a1.66,1.66,0,0,0-1.66-1.66h-.33a1.66,1.66,0,0,0-1.67,1.66v3.52a1.66,1.66,0,0,0,1.67,1.66h.33a1.66,1.66,0,0,0,1.66-1.66V258h.05v-3.26Z" transform="translate(-167.3 -215.76)"/><line class="cls-6" x1="165.92" y1="207.45" x2="63.05" y2="448.75"/><path class="cls-7" d="M591,704.72l-.93-2.23-4.94-.4-.08,0-3.87-.32-1.7-.14a.19.19,0,0,1-.08,0l-16.79-1.38h-.08l-1.71-.14-2.14-.17h0l-1.71-.14-.06,0h0l-5.84-.49.95,2.21.15.36-1.69,1.7-67.16,67.16-6.15-6.18-5.25-5.33L419.32,811q.38-209.52.77-419l-29.88-70.09v541.9l-6.51,6.51v41.8l3.05-3,17.77-17.8L591.05,704.76ZM390.37,898.51a1.66,1.66,0,0,1-1.66,1.67h-.33a1.67,1.67,0,0,1-1.63-1.33,1.87,1.87,0,0,1,0-.34V895a2,2,0,0,1,0-.34,1.67,1.67,0,0,1,1.63-1.33h.33a1.66,1.66,0,0,1,1.66,1.67Zm0-18.94a1.66,1.66,0,0,1-1.66,1.67h-.33a1.67,1.67,0,0,1-1.63-1.33,1.87,1.87,0,0,1,0-.34v-3.51a2,2,0,0,1,0-.34,1.67,1.67,0,0,1,1.63-1.33h.33a1.66,1.66,0,0,1,1.66,1.67Zm171.82-172.5a.2.2,0,0,1-.2.17l-1.72-.14h0a.07.07,0,0,1,0,.06l-.06.79s0,.06-.07.06l-2.06-.17s-.06,0-.06-.07l.07-.79a.06.06,0,0,1,0-.06l-1.71-.14a.2.2,0,0,1-.17-.2l.19-2.34a.2.2,0,0,1,.2-.17l1.72.14,1.07.09,1.05.08,1.54.13.19,0a.2.2,0,0,1,.17.2Zm22.51,1.85a.18.18,0,0,1-.2.17l-1.74-.14h0s.06,0,.06.07l-.07.79a.06.06,0,0,1-.06.06l-2.07-.17a.07.07,0,0,1-.06-.07l.07-.79a.05.05,0,0,1,0-.06l-1.69-.14a.19.19,0,0,1-.17-.2l.19-2.35a.21.21,0,0,1,.2-.17l1.69.14H581l2,.17,1,.08.73.06a.21.21,0,0,1,.17.2Z" transform="translate(-167.3 -215.76)"/><path class="cls-7" d="M216.12,703.55l-6.16.51-1.72.15,1.72-.14a.2.2,0,0,1,.2.17l.19,2.34a.19.19,0,0,1-.17.2l-1.71.14a.06.06,0,0,1,.06.06l.06.79a.05.05,0,0,1-.05.07l-2.07.17a.06.06,0,0,1-.06-.06l-.07-.79a.08.08,0,0,1,0-.07h-.06l-1.71.14a.19.19,0,0,1-.2-.17l-.2-2.34a.21.21,0,0,1,.17-.2l-16.95,1.39a.2.2,0,0,1,.2.17l.2,2.35a.2.2,0,0,1-.17.2l-1.7.14a.1.1,0,0,1,.05.06l.06.79s0,.07-.06.07l-2.06.17s-.07,0-.07-.06l-.07-.79a.07.07,0,0,1,.06-.07h0l-1.74.14a.19.19,0,0,1-.2-.17l-.19-2.34a.19.19,0,0,1,.17-.2l.73-.06-.73,0-4.35.36-2-2L362.08,891.29l18.28,18.3,2.55,2.55v-41.8ZM380,898.42h0v.09a1.66,1.66,0,0,1-1.66,1.67H378a1.67,1.67,0,0,1-1.67-1.67V895a1.67,1.67,0,0,1,1.67-1.67h.33A1.66,1.66,0,0,1,380,895v.16h0Z" transform="translate(-167.3 -215.76)"/><path class="cls-8" d="M215.52,699.28l-1,2.21-39,3.23.94-2.23,4.94-.4h0l1.79-.15h0l.67-.05,1.46-.12,1.74-.15h0L204,700.24h0l1.78-.15,2.12-.17h0l1.78-.15h0Z" transform="translate(-167.3 -215.76)"/><polyline class="cls-8" points="48.23 483.52 47.28 485.73 47.13 486.09 48.83 487.79"/><polygon class="cls-8" points="48.83 487.79 42.67 488.3 40.95 488.45 39.89 488.54 38.83 488.62 37.29 488.75 37.1 488.77 20.15 490.16 18.46 490.3 18.29 490.31 17.56 490.38 16.33 490.49 15.32 490.56 14.59 490.61 10.24 490.97 8.26 489 8.28 488.96 47.28 485.73 47.13 486.09 48.83 487.79"/><path class="cls-8" d="M187.26,701.45a.19.19,0,0,1-.09.17.19.19,0,0,1-.08,0l-1.69.14h-.06l-3.81.32-.08,0a.21.21,0,0,1-.13-.15l-.19-2.35a.2.2,0,0,1,.17-.2l1.74-.14,2.14-.18,1.69-.14a.21.21,0,0,1,.2.17Z" transform="translate(-167.3 -215.76)"/><polygon class="cls-8" points="18.11 486.01 18.11 486.03 18.05 486.03 15.98 486.2 15.98 486.18 15.75 483.49 17.89 483.31 18.11 486.01"/><path class="cls-8" d="M187.84,708.44a.2.2,0,0,1-.17.2l-1.7.14h0l-2.07.17h0l-1.74.14a.19.19,0,0,1-.2-.17l-.19-2.34a.19.19,0,0,1,.17-.2l.73-.06,1-.08,2-.17h.17l1.69-.14a.2.2,0,0,1,.2.17Z" transform="translate(-167.3 -215.76)"/><path class="cls-8" d="M186,708.78h0l-2.07.17h0l-.22-2.7h0l1.23-.1.73-.07h.17Z" transform="translate(-167.3 -215.76)"/><path class="cls-8" d="M209.78,699.59a.17.17,0,0,1-.11.18l-.06,0-1.72.14-2.13.18-1.72.14H204a.22.22,0,0,1-.12-.16l-.19-2.34a.2.2,0,0,1,.17-.2l1.71-.14,2.14-.18,1.71-.14a.21.21,0,0,1,.21.17Z" transform="translate(-167.3 -215.76)"/><polygon class="cls-8" points="40.6 484.16 40.6 484.18 38.47 484.35 38.47 484.33 38.24 481.64 40.38 481.46 40.6 484.16"/><path class="cls-8" d="M210.35,706.58a.19.19,0,0,1-.17.2l-1.71.14h0l-2.06.17h-.07l-1.71.14a.19.19,0,0,1-.2-.17l-.2-2.34a.21.21,0,0,1,.17-.2l.19,0,1.53-.12,1.07-.09,1.06-.09,1.72-.14a.2.2,0,0,1,.2.17Z" transform="translate(-167.3 -215.76)"/><polygon class="cls-8" points="41.18 491.16 41.17 491.16 39.11 491.33 39.1 491.33 39.04 491.34 38.82 488.63 39.89 488.54 40.95 488.45 41.18 491.16"/><path class="cls-8" d="M186.08,709.63s0,.07-.06.07l-2.06.17s-.07,0-.07-.06l-.07-.79a.07.07,0,0,1,.06-.07l2.07-.17h0a.1.1,0,0,1,.05.06Z" transform="translate(-167.3 -215.76)"/><path class="cls-8" d="M208.59,707.77a.05.05,0,0,1-.05.07l-2.07.17a.06.06,0,0,1-.06-.06l-.07-.79a.08.08,0,0,1,0-.07h0l2.06-.17h0a.06.06,0,0,1,.06.06Z" transform="translate(-167.3 -215.76)"/><path class="cls-9" d="M388.71,893.33h-.33a1.67,1.67,0,0,0-1.63,1.33,2,2,0,0,0,0,.34v3.51a1.87,1.87,0,0,0,0,.34,1.67,1.67,0,0,0,1.63,1.33h.33a1.66,1.66,0,0,0,1.66-1.67V895A1.66,1.66,0,0,0,388.71,893.33Zm0-18.94h-.33a1.67,1.67,0,0,0-1.63,1.33,2,2,0,0,0,0,.34v3.51a1.87,1.87,0,0,0,0,.34,1.67,1.67,0,0,0,1.63,1.33h.33a1.66,1.66,0,0,0,1.66-1.67v-3.51A1.66,1.66,0,0,0,388.71,874.39Zm173.5-169.86-.19,0-1.54-.13-1.05-.08-1.07-.09-1.72-.14a.2.2,0,0,0-.2.17l-.19,2.34a.2.2,0,0,0,.17.2l1.71.14a.06.06,0,0,0,0,.06l-.07.79s0,.07.06.07l2.06.17s.07,0,.07-.06l.06-.79a.07.07,0,0,0,0-.06h0l1.72.14a.2.2,0,0,0,.2-.17l.19-2.34A.2.2,0,0,0,562.21,704.53Zm.58-7-1.72-.14-2.13-.18-1.72-.14a.2.2,0,0,0-.2.17l-.19,2.34a.17.17,0,0,0,.11.18l.06,0,1.71.14h0l2.14.17,1.71.14h.08a.2.2,0,0,0,.12-.16l.2-2.34A.21.21,0,0,0,562.79,697.54Zm21.94,8.84-.73-.06-1-.08-2-.17h-.16l-1.69-.14a.21.21,0,0,0-.2.17l-.19,2.35a.19.19,0,0,0,.17.2l1.69.14a.05.05,0,0,0,0,.06l-.07.79a.07.07,0,0,0,.06.07l2.07.17a.06.06,0,0,0,.06-.06l.07-.79s0-.07-.06-.07h0l1.74.14a.18.18,0,0,0,.2-.17l.2-2.34A.21.21,0,0,0,584.73,706.38Zm.57-7-1.74-.14-2.13-.18-1.69-.14a.22.22,0,0,0-.21.17l-.19,2.35a.19.19,0,0,0,.09.17.19.19,0,0,0,.08,0l1.7.14,3.87.32.08,0a.22.22,0,0,0,.12-.15l.19-2.35A.2.2,0,0,0,585.3,699.39ZM388.57,271.88h-.33a1.67,1.67,0,0,0-1.63,1.32,2,2,0,0,0,0,.34v3.52a2,2,0,0,0,0,.34,1.67,1.67,0,0,0,1.63,1.32h.33a1.66,1.66,0,0,0,1.67-1.66v-3.52A1.66,1.66,0,0,0,388.57,271.88Zm0-18.94h-.33a1.67,1.67,0,0,0-1.63,1.32,2,2,0,0,0,0,.34v3.52a2,2,0,0,0,0,.34,1.67,1.67,0,0,0,1.63,1.32h.33a1.66,1.66,0,0,0,1.67-1.66V254.6A1.66,1.66,0,0,0,388.57,252.94Z" transform="translate(-167.3 -215.76)"/><path class="cls-8" d="M562.63,700.24h-.07l-1.71-.14-2.14-.17h0l-1.71-.14-.06,0,1.77.15h0l2.12.17h0Z" transform="translate(-167.3 -215.76)"/><path class="cls-8" d="M585.16,702.09l-.08,0-3.87-.32-1.7-.14a.19.19,0,0,1-.08,0h0l1.74.15h0l1.46.12.67.05h0l1.78.15Z" transform="translate(-167.3 -215.76)"/><polygon class="cls-8" points="384.89 486.09 383.2 487.79 383.79 483.52 384.74 485.73 384.89 486.09"/><polygon class="cls-8" points="416.71 490.56 415.7 490.49 414.46 490.38 413.72 490.31 415.7 490.48 416.71 490.56"/><path class="cls-8" d="M585.47,699.59l-.19,2.35a.22.22,0,0,1-.12.15l-.08,0-3.87-.32-1.7-.14a.19.19,0,0,1-.08,0,.19.19,0,0,1-.09-.17l.19-2.35a.22.22,0,0,1,.21-.17l1.69.14,2.13.18,1.74.14A.2.2,0,0,1,585.47,699.59Z" transform="translate(-167.3 -215.76)"/><polygon class="cls-8" points="416.27 483.49 416.05 486.18 416.05 486.2 413.92 486.03 413.92 486.01 414.14 483.31 416.27 483.49"/><path class="cls-8" d="M584.9,706.58l-.2,2.34a.18.18,0,0,1-.2.17l-1.74-.14h0l-2.06-.17h0l-1.69-.14a.19.19,0,0,1-.17-.2l.19-2.35a.21.21,0,0,1,.2-.17l1.69.14H581l2,.17,1,.08.73.06A.21.21,0,0,1,584.9,706.58Z" transform="translate(-167.3 -215.76)"/><path class="cls-8" d="M583,706.24h0l-.23,2.7h0l-2.06-.17h0l.22-2.72H581l.74.07Z" transform="translate(-167.3 -215.76)"/><path class="cls-8" d="M563,697.74l-.2,2.34a.2.2,0,0,1-.12.16h-.08l-1.71-.14-2.14-.18-1.71-.14-.06,0a.17.17,0,0,1-.11-.18l.19-2.34a.2.2,0,0,1,.2-.17l1.72.14,2.13.18,1.72.14A.21.21,0,0,1,563,697.74Z" transform="translate(-167.3 -215.76)"/><polygon class="cls-8" points="393.78 481.64 393.56 484.33 393.56 484.35 391.42 484.18 391.42 484.16 391.65 481.46 393.78 481.64"/><path class="cls-8" d="M562.38,704.73l-.19,2.34a.2.2,0,0,1-.2.17l-1.72-.14h-.06l-2.07-.17h0l-1.71-.14a.2.2,0,0,1-.17-.2l.19-2.34a.2.2,0,0,1,.2-.17l1.72.14,1.07.09,1.06.09,1.53.12.19,0A.2.2,0,0,1,562.38,704.73Z" transform="translate(-167.3 -215.76)"/><path class="cls-8" d="M560.49,704.39l-.22,2.71h-.06l-2.07-.17.22-2.71,1.07.09Z" transform="translate(-167.3 -215.76)"/><path class="cls-8" d="M582.78,709l-.07.79a.06.06,0,0,1-.06.06l-2.07-.17a.07.07,0,0,1-.06-.07l.07-.79a.05.05,0,0,1,0-.06h0l2.06.17S582.78,709,582.78,709Z" transform="translate(-167.3 -215.76)"/><path class="cls-8" d="M560.26,707.16l-.06.79s0,.06-.07.06l-2.06-.17s-.06,0-.06-.07l.07-.79a.06.06,0,0,1,0-.06h0l2.07.17h0A.07.07,0,0,1,560.26,707.16Z" transform="translate(-167.3 -215.76)"/><path class="cls-8" d="M386.75,875.72v4.19a1.87,1.87,0,0,1,0-.34v-3.51A2,2,0,0,1,386.75,875.72Z" transform="translate(-167.3 -215.76)"/><path class="cls-8" d="M386.72,895a2,2,0,0,1,0-.34v4.19a1.87,1.87,0,0,1,0-.34Z" transform="translate(-167.3 -215.76)"/><path class="cls-10" d="M390.37,876.06v3.51a1.66,1.66,0,0,1-1.66,1.67h-.33a1.67,1.67,0,0,1-1.63-1.33,1.87,1.87,0,0,1,0-.34v-3.51a2,2,0,0,1,0-.34,1.67,1.67,0,0,1,1.63-1.33h.33A1.66,1.66,0,0,1,390.37,876.06Z" transform="translate(-167.3 -215.76)"/><rect class="cls-11" x="219.46" y="660.42" width="3.58" height="3.26"/><path class="cls-8" d="M386.61,254.26v4.2a2,2,0,0,1,0-.34V254.6A2,2,0,0,1,386.61,254.26Z" transform="translate(-167.3 -215.76)"/><path class="cls-8" d="M386.58,273.54a2,2,0,0,1,0-.34v4.2a2,2,0,0,1,0-.34Z" transform="translate(-167.3 -215.76)"/><path class="cls-8" d="M386.61,254.26v4.2a2,2,0,0,1,0-.34V254.6A2,2,0,0,1,386.61,254.26Z" transform="translate(-167.3 -215.76)"/><path class="cls-8" d="M386.58,273.54a2,2,0,0,1,0-.34v4.2a2,2,0,0,1,0-.34Z" transform="translate(-167.3 -215.76)"/><path class="cls-8" d="M386.61,254.26v4.2a2,2,0,0,1,0-.34V254.6A2,2,0,0,1,386.61,254.26Z" transform="translate(-167.3 -215.76)"/><path class="cls-8" d="M386.58,273.54a2,2,0,0,1,0-.34v4.2a2,2,0,0,1,0-.34Z" transform="translate(-167.3 -215.76)"/><path class="cls-10" d="M379.84,254.6v3.52a1.66,1.66,0,0,1-1.66,1.66h-.33a1.66,1.66,0,0,1-1.67-1.66V254.6a1.66,1.66,0,0,1,1.67-1.66h.33A1.66,1.66,0,0,1,379.84,254.6Z" transform="translate(-167.3 -215.76)"/><rect class="cls-12" x="209.02" y="39" width="3.58" height="3.26"/><path class="cls-10" d="M390.24,254.6v3.52a1.66,1.66,0,0,1-1.67,1.66h-.33a1.67,1.67,0,0,1-1.63-1.32,2,2,0,0,1,0-.34V254.6a2,2,0,0,1,0-.34,1.67,1.67,0,0,1,1.63-1.32h.33A1.66,1.66,0,0,1,390.24,254.6Z" transform="translate(-167.3 -215.76)"/><rect class="cls-11" x="219.32" y="38.97" width="3.58" height="3.26"/><path class="cls-10" d="M379.84,273.54v3.52a1.66,1.66,0,0,1-1.66,1.66h-.33a1.66,1.66,0,0,1-1.67-1.66v-3.52a1.66,1.66,0,0,1,1.67-1.66h.33A1.66,1.66,0,0,1,379.84,273.54Z" transform="translate(-167.3 -215.76)"/><rect class="cls-12" x="209.02" y="57.94" width="3.58" height="3.26"/><path class="cls-10" d="M390.24,273.54v3.52a1.66,1.66,0,0,1-1.67,1.66h-.33a1.67,1.67,0,0,1-1.63-1.32,2,2,0,0,1,0-.34v-3.52a2,2,0,0,1,0-.34,1.67,1.67,0,0,1,1.63-1.32h.33A1.66,1.66,0,0,1,390.24,273.54Z" transform="translate(-167.3 -215.76)"/><rect class="cls-11" x="219.32" y="57.91" width="3.58" height="3.26"/><path class="cls-13" d="M215.52,699.28,380.22,313l2.79-6.54v-88.2l-2.79,6.55-15.08,35.38L188,675.49l-11.52,27-.94,2.23,0,0L362.08,891.29l18.28,18.3,2.55,2.55v-41.8L214.42,701.85l.15-.36Z" transform="translate(-167.3 -215.76)"/><polygon class="cls-8" points="48.23 483.52 47.28 485.73 8.28 488.96 9.21 486.73 14.18 486.33 15.96 486.18 16.64 486.13 18.11 486.01 19.85 485.86 36.68 484.48 38.47 484.33 40.59 484.16 42.37 484.01 42.39 484.01 48.23 483.52"/><polyline class="cls-8" points="48.23 483.52 47.28 485.73 47.13 486.09 48.83 487.79"/><polygon class="cls-8" points="48.83 487.79 42.67 488.3 40.95 488.45 38.83 488.62 37.11 488.77 18.45 490.3 17.56 490.38 16.33 490.49 14.59 490.61 10.23 490.98 8.26 489 8.28 488.96 47.28 485.73 47.13 486.09 48.83 487.79"/><rect class="cls-14" x="181.22" y="699.16" width="5.96" height="2.72" rx="0.19" transform="translate(-224.16 -198.28) rotate(-4.71)"/><rect class="cls-14" x="183.15" y="699.16" width="2.14" height="2.72" transform="translate(-224.16 -198.28) rotate(-4.71)"/><rect class="cls-14" x="181.8" y="706.15" width="5.96" height="2.72" rx="0.19" transform="translate(-224.73 -198.21) rotate(-4.71)"/><rect class="cls-14" x="183.73" y="706.14" width="2.14" height="2.72" transform="translate(-224.73 -198.21) rotate(-4.71)"/><rect class="cls-14" x="203.74" y="697.3" width="5.96" height="2.72" rx="0.19" transform="translate(-223.93 -196.44) rotate(-4.71)"/><rect class="cls-14" x="205.65" y="697.3" width="2.14" height="2.72" transform="translate(-223.93 -196.44) rotate(-4.71)"/><rect class="cls-14" x="204.31" y="704.29" width="5.96" height="2.72" rx="0.19" transform="translate(-224.5 -196.37) rotate(-4.71)"/><rect class="cls-14" x="206.22" y="704.29" width="2.14" height="2.72" transform="translate(-224.5 -196.37) rotate(-4.71)"/><rect class="cls-14" x="183.86" y="708.86" width="2.2" height="0.92" rx="0.06" transform="translate(-224.88 -198.19) rotate(-4.71)"/><rect class="cls-14" x="206.37" y="707" width="2.2" height="0.92" rx="0.06" transform="translate(-224.65 -196.35) rotate(-4.71)"/><path class="cls-15" d="M591,704.72l-.93-2.23-11.53-27L401.46,260.14,386.61,225.3l-3-7.09v88.2l3,7.08L551.08,699.28l.95,2.21.15.36-1.69,1.7L383.7,870.34v41.8l3.05-3,17.77-17.8L591.05,704.76Z" transform="translate(-167.3 -215.76)"/><polygon class="cls-8" points="383.79 483.52 384.74 485.73 423.74 488.96 422.8 486.73 417.84 486.33 416.05 486.18 415.37 486.13 413.91 486.01 412.17 485.86 395.33 484.48 393.55 484.33 391.43 484.16 389.65 484.01 389.63 484.01 383.79 483.52"/><polyline class="cls-8" points="383.19 487.79 384.89 486.09 384.74 485.73 383.79 483.52"/><polygon class="cls-8" points="383.19 487.79 389.35 488.3 391.07 488.45 393.19 488.62 394.91 488.77 413.57 490.3 414.46 490.38 415.69 490.49 417.43 490.61 421.79 490.98 423.76 489 423.74 488.96 384.74 485.73 384.89 486.09 383.19 487.79"/><rect class="cls-14" x="581.05" y="697.54" width="2.72" height="5.96" rx="0.19" transform="translate(-330.83 1007.72) rotate(-85.29)"/><rect class="cls-14" x="581.03" y="699.45" width="2.72" height="2.14" transform="translate(-330.85 1007.7) rotate(-85.29)"/><rect class="cls-14" x="580.47" y="704.53" width="2.72" height="5.96" rx="0.19" transform="translate(-338.33 1013.57) rotate(-85.29)"/><rect class="cls-14" x="580.45" y="706.43" width="2.72" height="2.14" transform="translate(-338.34 1013.54) rotate(-85.29)"/><rect class="cls-14" x="558.53" y="695.69" width="2.72" height="5.96" rx="0.19" transform="translate(-349.65 983.58) rotate(-85.29)"/><rect class="cls-14" x="558.53" y="697.59" width="2.72" height="2.14" transform="translate(-349.65 983.58) rotate(-85.29)"/><rect class="cls-14" x="557.96" y="702.68" width="2.72" height="5.96" rx="0.19" transform="translate(-357.15 989.42) rotate(-85.29)"/><rect class="cls-14" x="557.96" y="704.58" width="2.72" height="2.14" transform="matrix(0.08, -1, 1, 0.08, -357.15, 989.42)"/><rect class="cls-14" x="580.55" y="708.86" width="2.2" height="0.92" rx="0.06" transform="translate(935.85 1248.22) rotate(-175.29)"/><rect class="cls-14" x="558.04" y="707" width="2.2" height="0.92" rx="0.06" transform="translate(891.05 1242.66) rotate(-175.29)"/><polygon class="cls-8" points="219.46 651.53 219.46 693.33 216.41 696.38 216.41 654.58 219.46 651.53"/><polygon class="cls-8" points="213.07 652.03 215.62 654.58 215.62 696.38 213.07 693.83 213.07 652.03"/><rect class="cls-12" x="209.03" y="658.63" width="3.66" height="6.85" rx="1.66"/><rect class="cls-12" x="209.16" y="660.46" width="3.58" height="3.26"/><rect class="cls-12" x="219.42" y="658.63" width="3.66" height="6.85" rx="1.66"/><rect class="cls-11" x="219.46" y="660.42" width="3.58" height="3.26"/><polyline class="cls-8" points="219.32 97.73 216.3 90.65 216.3 2.45 219.32 9.54"/><polyline class="cls-8" points="212.93 97.19 215.72 90.65 215.72 2.45 212.93 9"/><polygon class="cls-8" points="212.93 9 215.72 2.45 215.72 90.65 212.93 97.19 212.93 9"/><polygon class="cls-8" points="219.32 9.54 219.32 97.73 216.3 90.65 216.3 2.45 219.32 9.54"/><polygon class="cls-8" points="219.32 9.54 219.32 97.73 216.3 90.65 216.3 2.45 219.32 9.54"/><rect class="cls-12" x="208.89" y="37.18" width="3.66" height="6.85" rx="1.66"/><rect class="cls-12" x="209.02" y="39" width="3.58" height="3.26"/><rect class="cls-12" x="219.29" y="37.18" width="3.66" height="6.85" rx="1.66"/><rect class="cls-11" x="219.32" y="38.97" width="3.58" height="3.26"/><rect class="cls-12" x="208.89" y="56.12" width="3.66" height="6.85" rx="1.66"/><rect class="cls-12" x="209.02" y="57.94" width="3.58" height="3.26"/><rect class="cls-12" x="219.29" y="56.12" width="3.66" height="6.85" rx="1.66"/><rect class="cls-11" x="219.32" y="57.91" width="3.58" height="3.26"/><path class="cls-10" d="M380,895v3.51a1.66,1.66,0,0,1-1.66,1.67H378a1.67,1.67,0,0,1-1.67-1.67V895a1.67,1.67,0,0,1,1.67-1.67h.33A1.66,1.66,0,0,1,380,895Z" transform="translate(-167.3 -215.76)"/><rect class="cls-12" x="209.16" y="679.4" width="3.58" height="3.26"/><path class="cls-10" d="M390.37,895v3.51a1.66,1.66,0,0,1-1.66,1.67h-.33a1.67,1.67,0,0,1-1.63-1.33,1.87,1.87,0,0,1,0-.34V895a2,2,0,0,1,0-.34,1.67,1.67,0,0,1,1.63-1.33h.33A1.66,1.66,0,0,1,390.37,895Z" transform="translate(-167.3 -215.76)"/><rect class="cls-11" x="219.46" y="679.36" width="3.58" height="3.26"/><path class="cls-16" d="M476,398.33a18.72,18.72,0,0,1-3.71-5.33,12.22,12.22,0,0,1-1.13-4.63,9.62,9.62,0,0,1,.72-4.13,11.69,11.69,0,0,1,3-4.2,17.42,17.42,0,0,1,4.61-3,19,19,0,0,1,5.38-1.49,12,12,0,0,1,5,.31,9.76,9.76,0,0,1,3.94,2.34,12.22,12.22,0,0,1,2.71,3.88,21.74,21.74,0,0,1,1.63,6l-2.84,1.27a15.09,15.09,0,0,0-1.13-6.35,7,7,0,0,0-2.09-2.69,6.77,6.77,0,0,0-3-1.35,11.77,11.77,0,0,0-4,.05A17.18,17.18,0,0,0,481,380.3a11.19,11.19,0,0,0-5.83,5.13,8.06,8.06,0,0,0-.81,3.55,9,9,0,0,0,.81,3.69,15.53,15.53,0,0,0,3.37,4.53Z" transform="translate(-167.3 -215.76)"/><path class="cls-16" d="M479.76,409.68a7.93,7.93,0,0,1,.55-7.95A19.8,19.8,0,0,1,497.73,394a8.48,8.48,0,0,1,5.74,12.84,19.8,19.8,0,0,1-17.42,7.78A7.93,7.93,0,0,1,479.76,409.68Zm2.31-1a4.8,4.8,0,0,0,4.22,2.93c2,.2,4.71-.43,8-1.91s5.55-3,6.75-4.68a5,5,0,0,0-3.58-8c-2-.21-4.69.43-8,1.9s-5.57,3-6.78,4.69A4.76,4.76,0,0,0,482.07,408.64Z" transform="translate(-167.3 -215.76)"/><path class="cls-16" d="M485.67,421.36l23.09-10.31,1.31,2.91L496.6,431l0,0,17.55-7.84,1.12,2.51L492.21,436l-1.27-2.84L504.5,416l0,0-17.67,7.89Z" transform="translate(-167.3 -215.76)"/><path class="cls-16" d="M494.91,440.63l3-1.36a19.13,19.13,0,0,0,1.27,7.8,6.81,6.81,0,0,0,1.59,2.24,4.08,4.08,0,0,0,2.24,1.09,4.2,4.2,0,0,0,2.33-.32q2.21-1,2.42-4.37l.34-5.53a10.38,10.38,0,0,1,1.15-4.63,6.14,6.14,0,0,1,2.81-2.42,6.55,6.55,0,0,1,5-.19c1.71.59,3.1,2.1,4.19,4.53a25.05,25.05,0,0,1,1.75,6.44l-2.66,1.19a18.9,18.9,0,0,0-1.4-6.6,7,7,0,0,0-1.35-2,3,3,0,0,0-1.81-.94,3.46,3.46,0,0,0-1.89.26,3.4,3.4,0,0,0-1.64,1.54,7.56,7.56,0,0,0-.71,3.22l-.3,5.15a10.71,10.71,0,0,1-1.16,4.86,6.28,6.28,0,0,1-2.82,2.4,7,7,0,0,1-5.81.05c-1.94-.83-3.51-2.59-4.7-5.26a21.75,21.75,0,0,1-.88-2.37A36.61,36.61,0,0,1,494.91,440.63Z" transform="translate(-167.3 -215.76)"/><path class="cls-16" d="M505.45,465.65l20.78-9.29-3.43-7.69,2.31-1,8.25,18.47-2.31,1-3.44-7.7-20.78,9.29Z" transform="translate(-167.3 -215.76)"/><path class="cls-16" d="M511.72,479.69l23.1-10.31,2.49,5.59a14.34,14.34,0,0,1,1.49,4.95,5.22,5.22,0,0,1-1,3.15,6.45,6.45,0,0,1-2.64,2.16,8.36,8.36,0,0,1-3.9.61,8.84,8.84,0,0,1-4.86-2.26l-7.58,12-1.66-3.72,7.05-10.73L523,478.37l-9.88,4.41Zm13.57-2.35L526,479a5.4,5.4,0,0,0,7.44,3.12,4.27,4.27,0,0,0,1.68-1.28,3.34,3.34,0,0,0,.61-2,9.33,9.33,0,0,0-1-3.45l-.84-1.88Z" transform="translate(-167.3 -215.76)"/><path class="cls-16" d="M543.2,488.15l1.37,3.07-15.32,6.84a10.27,10.27,0,0,0-3.6,2.28,4.11,4.11,0,0,0-1,2.21,4.73,4.73,0,0,0,.44,2.47,5,5,0,0,0,2.57,2.66q1.73.78,5.54-.93l15.25-6.81,1.2,2.69-14.79,6.6a21.47,21.47,0,0,1-3.88,1.42,7.14,7.14,0,0,1-4.57-.59,7.49,7.49,0,0,1-3.61-4,8,8,0,0,1-.44-6.31,6.51,6.51,0,0,1,1.73-2.52,9.89,9.89,0,0,1,1.59-1.18c.55-.31,1.29-.68,2.22-1.1Z" transform="translate(-167.3 -215.76)"/><path class="cls-16" d="M536.22,533.12a18.92,18.92,0,0,1-3.71-5.33,12.46,12.46,0,0,1-1.13-4.63,9.59,9.59,0,0,1,.72-4.13,11.85,11.85,0,0,1,3-4.2,17.31,17.31,0,0,1,4.62-3,18.47,18.47,0,0,1,5.38-1.49,11.94,11.94,0,0,1,5,.31A9.65,9.65,0,0,1,554,513a12.25,12.25,0,0,1,2.72,3.88,22.1,22.1,0,0,1,1.62,6l-2.84,1.27a15.09,15.09,0,0,0-1.13-6.35,6.86,6.86,0,0,0-2.09-2.69,6.57,6.57,0,0,0-3-1.35,11.52,11.52,0,0,0-4,.05,17.47,17.47,0,0,0-4.06,1.25,11.23,11.23,0,0,0-5.83,5.13,8.35,8.35,0,0,0-.81,3.55,9,9,0,0,0,.81,3.69,16,16,0,0,0,3.37,4.53Z" transform="translate(-167.3 -215.76)"/><path class="cls-16" d="M544.82,552.37a18.78,18.78,0,0,1-3.71-5.33,12.41,12.41,0,0,1-1.13-4.63,9.65,9.65,0,0,1,.72-4.13,11.94,11.94,0,0,1,3-4.2,17.28,17.28,0,0,1,4.62-3,18.57,18.57,0,0,1,5.38-1.5,12,12,0,0,1,5,.32,9.77,9.77,0,0,1,3.93,2.33,12.29,12.29,0,0,1,2.72,3.89,21.9,21.9,0,0,1,1.62,6l-2.84,1.27a15.11,15.11,0,0,0-1.13-6.36,6.93,6.93,0,0,0-2.09-2.69,6.67,6.67,0,0,0-3-1.35,12,12,0,0,0-4,.05,18,18,0,0,0-4.06,1.25,11.25,11.25,0,0,0-5.83,5.14,8.27,8.27,0,0,0-.81,3.54,8.94,8.94,0,0,0,.81,3.69,15.72,15.72,0,0,0,3.37,4.53Z" transform="translate(-167.3 -215.76)"/><path class="cls-16" d="M546.05,556.54l2.31-1,2.4,5.38,18.48-8.25-2.41-5.38,2.31-1,6.19,13.86-2.31,1-2.4-5.38L552.14,564l2.41,5.38-2.31,1Z" transform="translate(-167.3 -215.76)"/><path class="cls-16" d="M557.16,583a7.93,7.93,0,0,1,.55-8,19.8,19.8,0,0,1,17.43-7.77,8.48,8.48,0,0,1,5.73,12.83,19.75,19.75,0,0,1-17.42,7.79A7.93,7.93,0,0,1,557.16,583Zm2.31-1a4.8,4.8,0,0,0,4.23,2.93c2,.2,4.71-.43,8-1.91s5.54-3,6.75-4.69a5,5,0,0,0-3.58-8c-2-.21-4.7.43-8,1.9s-5.56,3-6.78,4.69A4.78,4.78,0,0,0,559.47,581.94Zm22-13.3,6.16,1.4,1.55,3.47-6.51-2.17Z" transform="translate(-167.3 -215.76)"/><path class="cls-16" d="M563.07,594.66l23.1-10.31,1.3,2.91-13.46,17,0,0,17.55-7.84L592.7,599,569.61,609.3l-1.27-2.84,13.56-17.14,0,0-17.67,7.89Z" transform="translate(-167.3 -215.76)"/><path class="cls-16" d="M193.92,609.15l-23.15-10.21,2.88-6.52a21.11,21.11,0,0,1,1.8-3.35,5.79,5.79,0,0,1,3.39-2.5,6.84,6.84,0,0,1,4.52.57,7.64,7.64,0,0,1,4.6,4.94c.64,2.22.32,4.77-.94,7.64L186,602l9.26,4.08ZM183.71,601l.85-1.93q1.66-3.76.57-5.72a6.59,6.59,0,0,0-3.2-2.89,3.85,3.85,0,0,0-3.75.08,4.33,4.33,0,0,0-1.21,1.12,12.67,12.67,0,0,0-1.17,2.19l-1.35,3.07Z" transform="translate(-167.3 -215.76)"/><path class="cls-16" d="M205.36,583.21,182.21,573l2.48-5.61a14.19,14.19,0,0,1,2.67-4.41,5.09,5.09,0,0,1,3-1.37,6.38,6.38,0,0,1,3.37.5,8.3,8.3,0,0,1,3.07,2.48,8.91,8.91,0,0,1,1.59,5.12l14-2.43L210.74,571l-12.69,2-1.23,2.77,9.9,4.37Zm-10.85-8.49.72-1.62a5.4,5.4,0,0,0-2.68-7.61,4.13,4.13,0,0,0-2.07-.38,3.24,3.24,0,0,0-1.87.86,9.33,9.33,0,0,0-1.88,3.07l-.84,1.88Z" transform="translate(-167.3 -215.76)"/><path class="cls-16" d="M220.67,550.06A7.92,7.92,0,0,1,214.4,555,19.78,19.78,0,0,1,197,547.28a8.48,8.48,0,0,1,5.67-12.86,19.75,19.75,0,0,1,17.46,7.7A7.92,7.92,0,0,1,220.67,550.06Zm-2.32-1a4.81,4.81,0,0,0-.67-5.1c-1.21-1.65-3.48-3.2-6.79-4.66s-6-2.08-8-1.87a5,5,0,0,0-3.54,8q1.82,2.47,6.77,4.66c3.32,1.46,6,2.09,8,1.88A4.8,4.8,0,0,0,218.35,549.05Z" transform="translate(-167.3 -215.76)"/><path class="cls-16" d="M231.16,524.71l-9.76-4.3-16.74,1.7,1.56-3.54,13.14-1.34-7.74-10.89,1.28-2.91,9.86,13.88,9.76,4.3Z" transform="translate(-167.3 -215.76)"/><path class="cls-16" d="M240.81,502.82l-23.14-10.21,6-13.55,2.31,1-4.61,10.46,7.42,3.27,3.91-8.86,2.32,1-3.91,8.86,8.77,3.87,4.93-11.18,2.32,1Z" transform="translate(-167.3 -215.76)"/><path class="cls-16" d="M258.5,461.27a18.74,18.74,0,0,1-1.46,6.32,12.13,12.13,0,0,1-2.68,4,9.64,9.64,0,0,1-3.54,2.24,11.78,11.78,0,0,1-5.14.58,17,17,0,0,1-5.31-1.42,18.63,18.63,0,0,1-4.72-3,12.09,12.09,0,0,1-3.1-3.9,9.89,9.89,0,0,1-.91-4.48A12.45,12.45,0,0,1,232.7,457a22.57,22.57,0,0,1,3.38-5.26l2.85,1.26a15.13,15.13,0,0,0-4,5.1,6.89,6.89,0,0,0-.59,3.36,6.62,6.62,0,0,0,1,3.13,11.65,11.65,0,0,0,2.73,2.94,17.42,17.42,0,0,0,3.65,2.17,11.19,11.19,0,0,0,7.72.88,8,8,0,0,0,3.17-1.78,8.8,8.8,0,0,0,2.2-3.07,15.8,15.8,0,0,0,1.1-5.54Z" transform="translate(-167.3 -215.76)"/><path class="cls-16" d="M266.38,444.84l-20.83-9.19-3.4,7.71-2.31-1L248,423.83l2.31,1-3.4,7.71,20.83,9.18Z" transform="translate(-167.3 -215.76)"/><path class="cls-16" d="M279.39,416.92a7.91,7.91,0,0,1-6.26,4.92,19.72,19.72,0,0,1-17.46-7.71,8.48,8.48,0,0,1,5.67-12.86A19.78,19.78,0,0,1,278.8,409,7.93,7.93,0,0,1,279.39,416.92Zm-2.32-1a4.83,4.83,0,0,0-.66-5.1c-1.22-1.64-3.49-3.2-6.8-4.66s-6-2.08-8-1.87a5,5,0,0,0-3.55,8q1.81,2.46,6.78,4.65c3.31,1.46,6,2.09,8,1.88A4.77,4.77,0,0,0,277.07,415.9Z" transform="translate(-167.3 -215.76)"/><path class="cls-16" d="M286.9,396.88l-3-1.34a19.23,19.23,0,0,0,4.93-6.18,6.85,6.85,0,0,0,.59-2.68,4.08,4.08,0,0,0-.69-2.4,4.24,4.24,0,0,0-1.8-1.51q-2.22-1-4.87,1.14l-4.33,3.45a10.4,10.4,0,0,1-4.2,2.26,6,6,0,0,1-3.68-.47,6.54,6.54,0,0,1-3.47-3.54c-.71-1.66-.52-3.71.55-6.15a24.76,24.76,0,0,1,3.6-5.62l2.68,1.18a18.63,18.63,0,0,0-4,5.46,6.7,6.7,0,0,0-.61,2.38,3,3,0,0,0,.51,2,3.43,3.43,0,0,0,3.7,1.41,7.7,7.7,0,0,0,2.87-1.63l4-3.24a10.63,10.63,0,0,1,4.38-2.39,6.09,6.09,0,0,1,3.68.48,6.93,6.93,0,0,1,3.93,4.27c.68,2,.43,4.33-.75,7a20.5,20.5,0,0,1-1.17,2.25A37.4,37.4,0,0,1,286.9,396.88Z" transform="translate(-167.3 -215.76)"/><path class="cls-16" d="M421.58,933.9l-18-17.78,4.65-4.7q4.15-4.2,8.21-3.72t8.12,4.48a20.88,20.88,0,0,1,3.45,4.36,10.48,10.48,0,0,1,1.44,4.8,8.79,8.79,0,0,1-.85,4.46,16.08,16.08,0,0,1-3,4Zm.58-4.18,1.19-1.2a10.34,10.34,0,0,0,3-4.54,6.71,6.71,0,0,0-.51-4.28,19.18,19.18,0,0,0-8.15-8.13,6.46,6.46,0,0,0-4.07-.51c-1.25.29-2.83,1.39-4.72,3.3l-1.09,1.14Z" transform="translate(-167.3 -215.76)"/><path class="cls-16" d="M454.74,900.36l-1.8-1.78,4.14-4.19-14.39-14.23-4.14,4.2-1.8-1.78,10.66-10.8,1.8,1.78-4.14,4.2L459.46,892l4.14-4.2,1.8,1.78Z" transform="translate(-167.3 -215.76)"/><path class="cls-16" d="M486.85,867l-2.37-2.34a19.06,19.06,0,0,0,6.8-4,6.7,6.7,0,0,0,1.51-2.3,4,4,0,0,0,.21-2.48,4.16,4.16,0,0,0-1.14-2.06c-1.15-1.13-2.8-1.36-5-.67l-5.27,1.69a10.35,10.35,0,0,1-4.73.61,6.05,6.05,0,0,1-3.28-1.75,6.55,6.55,0,0,1-2-4.55c-.08-1.8.83-3.65,2.7-5.54a24.78,24.78,0,0,1,5.37-4l2.07,2.05a18.69,18.69,0,0,0-5.64,3.7,7,7,0,0,0-1.42,2,3.06,3.06,0,0,0-.22,2,3.46,3.46,0,0,0,3,2.64,7.7,7.7,0,0,0,3.26-.5l4.91-1.59a10.53,10.53,0,0,1,4.95-.68,6.16,6.16,0,0,1,3.26,1.75,7,7,0,0,1,2.15,5.4q-.11,3.16-3.19,6.28a21,21,0,0,1-1.9,1.69A37.27,37.27,0,0,1,486.85,867Z" transform="translate(-167.3 -215.76)"/><path class="cls-16" d="M520.52,833.79l-18-17.78L513,805.47l1.8,1.78-8,8.13,5.77,5.71,6.82-6.9,1.8,1.78-6.82,6.89,6.82,6.74,8.59-8.69,1.8,1.78Z" transform="translate(-167.3 -215.76)"/><path class="cls-16" d="M539.64,769.76a5.57,5.57,0,0,1,1.54,3,2.82,2.82,0,0,1-.91,2.07,5.14,5.14,0,0,1-1.59,1.12l-1.89.8a2.9,2.9,0,0,0-.93.55c-.42.42-.38,1.05.1,1.89l-1.48,1.5a5.52,5.52,0,0,1-1.54-3,2.83,2.83,0,0,1,.92-2.09,5,5,0,0,1,1.58-1.11l1.88-.8a2.85,2.85,0,0,0,.93-.55q.63-.63-.09-1.89Zm12.7,31.83-18-17.78,2.25-2.27,20.74,6.37,0,0-13.67-13.52,1.93-2,18,17.78-2.18,2.21L540.54,786l0,0,13.77,13.6Z" transform="translate(-167.3 -215.76)"/><path class="cls-16" d="M591.06,763.31a7.91,7.91,0,0,1-7.6,2.37,19.76,19.76,0,0,1-13.57-13.42,8.48,8.48,0,0,1,9.88-10,19.81,19.81,0,0,1,13.57,13.42A7.89,7.89,0,0,1,591.06,763.31Zm-1.8-1.77a4.83,4.83,0,0,0,1.19-5q-.83-3-4.69-6.77t-6.81-4.6a5,5,0,0,0-6.17,6.25q.81,3,4.67,6.76c2.58,2.55,4.85,4.08,6.82,4.62A4.81,4.81,0,0,0,589.26,761.54Z" transform="translate(-167.3 -215.76)"/><path class="cls-16" d="M167.3,755.86l1.78-1.79,4.17,4.17,14.31-14.3-4.17-4.17,1.79-1.79,10.73,10.73-1.79,1.79L190,746.33l-14.3,14.31,4.16,4.16L178,766.59Z" transform="translate(-167.3 -215.76)"/><path class="cls-16" d="M185.27,773.84,203.16,756l2.26,2.26-6.5,20.71,0,0,13.6-13.6,1.94,1.95-17.88,17.88-2.2-2.2L201,762.13l0,0-13.68,13.68Z" transform="translate(-167.3 -215.76)"/><path class="cls-16" d="M215.8,803.57a23.23,23.23,0,0,1-3.47-2,19.27,19.27,0,0,1-1.76-1.55,12,12,0,0,1-3.33-5.45,10.33,10.33,0,0,1,.38-6.13,16.1,16.1,0,0,1,4-6.1,17.08,17.08,0,0,1,5.86-3.93,10.3,10.3,0,0,1,6.22-.51,11.7,11.7,0,0,1,5.6,3.27,23.06,23.06,0,0,1,3.61,4.94l-2.2,2.2a14.23,14.23,0,0,0-3.32-5.47,7.09,7.09,0,0,0-3.78-2,7.91,7.91,0,0,0-4.76.77A16.28,16.28,0,0,0,214,785a12.45,12.45,0,0,0-3.1,4.66,8.38,8.38,0,0,0-.25,4.75,8.55,8.55,0,0,0,2.31,4.1,12.16,12.16,0,0,0,1.73,1.39l6-6,2.39,2.39Z" transform="translate(-167.3 -215.76)"/><path class="cls-16" d="M222.65,811.21l17.88-17.88L251,803.81l-1.79,1.79-8.08-8.09-5.74,5.74,6.85,6.85-1.79,1.79L233.61,805l-6.78,6.78,8.64,8.64-1.79,1.79Z" transform="translate(-167.3 -215.76)"/><path class="cls-16" d="M240.11,828.67,258,810.79l2.26,2.26-6.5,20.7,0,0,13.59-13.59,1.94,1.94L251.44,840l-2.2-2.2L255.78,817l0,0-13.69,13.69Z" transform="translate(-167.3 -215.76)"/><path class="cls-16" d="M258.69,847.25l1.78-1.79,4.17,4.17L279,835.32l-4.17-4.16,1.79-1.79L287.3,840.1l-1.79,1.79-4.17-4.17L267,852l4.17,4.17L269.42,858Z" transform="translate(-167.3 -215.76)"/><path class="cls-16" d="M277.48,866.05l17.89-17.89,10.47,10.48-1.78,1.79L296,852.35l-5.74,5.74,6.85,6.85-1.79,1.79-6.85-6.86-6.78,6.78,8.64,8.64-1.78,1.79Z" transform="translate(-167.3 -215.76)"/><path class="cls-16" d="M295.37,883.94l17.89-17.88,4.33,4.33a14,14,0,0,1,3.15,4.09,5.1,5.1,0,0,1,.19,3.3,6.42,6.42,0,0,1-1.69,3,8.16,8.16,0,0,1-3.42,2,8.9,8.9,0,0,1-5.35-.36l-2.79,13.91-2.88-2.88,2.76-12.54-2.14-2.15-7.65,7.65Zm11.83-7,1.26,1.25a5.38,5.38,0,0,0,8.06.26,4.14,4.14,0,0,0,1.11-1.8,3.25,3.25,0,0,0-.13-2.05,9.31,9.31,0,0,0-2.18-2.86l-1.46-1.46Z" transform="translate(-167.3 -215.76)"/><path class="cls-16" d="M313.52,902.09l1.79-1.79,4.17,4.17,14.3-14.31L329.62,886l1.78-1.79,10.73,10.73-1.78,1.79-4.17-4.17-14.31,14.31L326,911l-1.79,1.79ZM336,885.85l6.26-.9,2.69,2.68-6.86.31Z" transform="translate(-167.3 -215.76)"/><path class="cls-16" d="M329.85,918.42l24-11.77,2.38,2.38-11.77,24L342,930.51l3.33-6.79-6.59-6.59-6.8,3.33ZM341.09,916l5.36,5.37,5.17-10.54Z" transform="translate(-167.3 -215.76)"/></svg>